<?xml version="1.0" encoding="UTF-8"?>
<svg id="Layer_2" xmlns="http://www.w3.org/2000/svg" viewBox="0 0 170.53 170.53">
  <defs>
    <style>
      .cls-1 {
        fill: #fff;
      }
    </style>
  </defs>
  <g id="Layer_1-2" data-name="Layer_1">
    <g>
      <rect y="0" width="170.53" height="170.53" rx="12" ry="12"/>
      <g>
        <path class="cls-1" d="M82.28,57.02c-18.81,11.04-37.07,21.76-55.99,32.86-.99-10.8.87-20.42,4.99-29.69,3.52-7.92,8.56-14.67,14.98-20.38,1.35-1.2,2.39-2.6,4.73-1.19,10.19,6.17,20.52,12.1,31.29,18.4Z"/>
        <path class="cls-1" d="M59.79,136.61c0,2.79-.99,2.82-3,1.65-16.54-9.59-26.47-23.97-30.18-42.87-.25-1.29-.08-2.24,1.22-2.99,10.47-6.07,20.9-12.22,31.94-18.7,0,21.47-.03,42.19.03,62.91Z"/>
        <path class="cls-1" d="M62.7,102.07c19.12,11.22,37.28,21.87,56.01,32.87-11.37,7.91-23.39,11.05-36.46,10.51-5.76-.24-11.35-1.35-16.81-3.28-1.83-.64-2.78-1.47-2.77-3.6.07-11.83.03-23.66.03-36.5Z"/>
        <path class="cls-1" d="M107.71,68.5c-19.16-11.25-37.41-21.97-56.14-32.96,17.18-11.1,34.78-13.35,53.5-7.1,1.92.64,2.69,1.56,2.68,3.62-.07,11.82-.04,23.63-.04,36.44Z"/>
        <path class="cls-1" d="M143.71,74.82c.37,1.83-.05,2.79-1.65,3.71-10.22,5.91-20.38,11.91-31.41,18.38,0-21.45.05-42.03-.04-62.59-.01-3.94,1.69-2.76,3.62-1.62,16.05,9.54,25.86,23.58,29.48,42.12Z"/>
        <path class="cls-1" d="M88.16,113.55c18.9-11.09,37.07-21.76,55.77-32.72,1.15,6.59.39,12.61-1.01,18.48-2.97,12.5-9.29,23.04-18.8,31.59-1.67,1.5-2.94,2.21-5.24.8-9.95-6.06-20.04-11.88-30.72-18.15Z"/>
      </g>
    </g>
  </g>
</svg>