<?xml version="1.0" encoding="UTF-8"?>
<svg id="Layer_2" xmlns="http://www.w3.org/2000/svg" viewBox="0 0 724.8 121.17">
  <defs>
    <style>
      .cls-1 {
        fill: #fff;
      }
    </style>
  </defs>
  <g id="Layer_1-2" data-name="Layer_1">
    <g>
      <g>
        <path class="cls-1" d="M56.25,32.68C37.43,43.71,19.18,54.44.26,65.53c-.99-10.8.87-20.42,4.99-29.69,3.52-7.92,8.56-14.67,14.98-20.38,1.35-1.2,2.39-2.6,4.73-1.19,10.19,6.17,20.52,12.1,31.29,18.4Z"/>
        <path class="cls-1" d="M33.75,112.28c0,2.79-.99,2.82-3,1.65C14.21,104.33,4.28,89.96.57,71.05c-.25-1.29-.08-2.24,1.22-2.99,10.47-6.07,20.9-12.22,31.94-18.7,0,21.47-.03,42.19.03,62.91Z"/>
        <path class="cls-1" d="M36.66,77.74c19.12,11.22,37.28,21.87,56.01,32.87-11.37,7.91-23.39,11.05-36.46,10.51-5.76-.24-11.35-1.35-16.81-3.28-1.83-.64-2.78-1.47-2.77-3.6.07-11.83.03-23.66.03-36.5Z"/>
        <path class="cls-1" d="M81.67,44.17c-19.16-11.25-37.41-21.97-56.14-32.96C42.71.11,60.31-2.14,79.03,4.11c1.92.64,2.69,1.56,2.68,3.62-.07,11.82-.04,23.63-.04,36.44Z"/>
        <path class="cls-1" d="M117.68,50.48c.37,1.83-.05,2.79-1.65,3.71-10.22,5.91-20.38,11.91-31.41,18.38,0-21.45.05-42.03-.04-62.59-.01-3.94,1.69-2.76,3.62-1.62,16.05,9.54,25.86,23.58,29.48,42.12Z"/>
        <path class="cls-1" d="M62.12,89.21c18.9-11.09,37.07-21.76,55.77-32.72,1.15,6.59.39,12.61-1.01,18.48-2.97,12.5-9.29,23.04-18.8,31.59-1.67,1.5-2.94,2.21-5.24.8-9.95-6.06-20.04-11.88-30.72-18.15Z"/>
      </g>
      <path class="cls-1" d="M204.65,25.63h-5.09l-22.06,95.55h-20.36L114.2,4.07h38.01l25.46,79.42h5.09L202.11,0l19.35,83.5h5.09L252,4.07h38.01l-42.94,117.1h-20.37l-22.06-95.55Z"/>
      <path class="cls-1" d="M297.65,121.17V4.07h33.94v82.31h58.55v34.79h-92.49Z"/>
      <path class="cls-1" d="M490.61,37.17h-55.5v22.4h53.8v3.05h-53.8v25.46h55.5v33.09h-89.44V4.07h89.44v33.09Z"/>
      <path class="cls-1" d="M577.84,84.68v36.49h-32.25v-36.49L498.24,4.07h40.22l18.33,43.78c1.36,3.05,1.7,11.2,1.87,16.46l.34,11.37h5.09l.34-11.37c.17-5.26,1.02-13.41,2.21-16.29l18.33-43.95h40.22l-47.35,80.61Z"/>
      <path class="cls-1" d="M724.8,37.17h-55.5v22.4h53.8v3.05h-53.8v25.46h55.5v33.09h-89.44V4.07h89.44v33.09Z"/>
    </g>
  </g>
</svg>